<svg id="Layer_1" data-name="Layer 1" xmlns="http://www.w3.org/2000/svg" viewBox="0 0 377.71 208"><defs><style>.cls-1{fill:#f6ba23;}.cls-2{fill:#fff;}</style></defs><polygon class="cls-1" points="243.19 81.64 140.1 81.64 116.76 8.68 93.14 81.25 16.57 81.25 78.38 126.97 54.86 199.32 68 190.05 89.65 123.16 45.34 90.94 100.07 90.94 116.67 39.64 133.24 90.21 231.04 90.46 231.93 90.33 243.19 81.64"/><polygon class="cls-2" points="361.14 188.97 348.86 198.68 102.76 198.68 90.29 188.97 361.14 188.97"/><polygon class="cls-1" points="361.14 188.97 348.86 198.68 242.43 198.68 230.07 188.97 361.14 188.97"/><polygon class="cls-1" points="230.29 105.54 236.29 105.54 254.57 161.59 264.57 132.3 269.15 132.3 279.05 161.73 297.24 105.54 303.15 105.54 280.96 174.11 276.86 174.11 266.72 143.83 256.48 174.11 252.48 174.11 230.29 105.54"/><polygon class="cls-2" points="233.24 132.49 226.86 132.49 226.86 112.52 221.15 112.52 221.15 132.49 214.67 132.49 214.67 138.11 221.15 138.11 221.15 173.83 226.86 173.83 226.86 138.11 233.24 138.11 233.24 132.49"/><path class="cls-1" d="M331.43,131.33A16.61,16.61,0,0,0,320,136v-3.19h-5.62v41.33H320V146.52a11.51,11.51,0,0,1,11.43-10.19,11,11,0,0,1,11,11v26.76h5V147.35A16,16,0,0,0,331.43,131.33Z"/><path class="cls-2" d="M164.4,146.37l4.6-2.92h0l.1-.07a22,22,0,1,0-3.37,22.47l-4.1-3.59a16.53,16.53,0,0,1-24.84,1l27.58-16.93Zm-30.83,12a16.54,16.54,0,0,1,28.2-16.75Z"/><path class="cls-2" d="M208.34,146.37l4.6-2.92h0l.1-.07a22,22,0,1,0-3.36,22.47l-4.11-3.59a16.53,16.53,0,0,1-24.84,1l27.58-16.93Zm-30.83,12a16.54,16.54,0,0,1,28.21-16.75Z"/><polygon class="cls-2" points="360.76 90.78 231.04 90.46 243.06 81.64 349.05 81.64 360.76 90.78"/><path class="cls-2" d="M122.09,156.41c0-1,0-2.5,0-3.57V104.4h-6.21v52.35a11.86,11.86,0,0,1-4.23,9.27,11,11,0,0,1-7,2.47A11.79,11.79,0,0,1,96,164.57l-4.3,4.13a17.66,17.66,0,0,0,26.88-1.07,16.81,16.81,0,0,0,3.53-10.71Z"/><rect class="cls-1" x="302.57" y="132.78" width="5.62" height="41.33"/><rect class="cls-1" x="302.57" y="121.44" width="5.62" height="6.02"/></svg>